<?xml version="1.0" encoding="UTF-8" standalone="no"?>
<!-- Generator: Adobe Illustrator 18.0.0, SVG Export Plug-In . SVG Version: 6.00 Build 0)  -->

<svg
   xmlns:dc="http://purl.org/dc/elements/1.1/"
   xmlns:cc="http://creativecommons.org/ns#"
   xmlns:rdf="http://www.w3.org/1999/02/22-rdf-syntax-ns#"
   xmlns:svg="http://www.w3.org/2000/svg"
   xmlns="http://www.w3.org/2000/svg"
   xmlns:sodipodi="http://sodipodi.sourceforge.net/DTD/sodipodi-0.dtd"
   xmlns:inkscape="http://www.inkscape.org/namespaces/inkscape"
   version="1.1"
   id="Capa_1"
   x="0px"
   y="0px"
   viewBox="0 0 454.62 454.62"
   style="enable-background:new 0 0 454.62 454.62;"
   xml:space="preserve"
   inkscape:version="0.91 r"
   sodipodi:docname="lock134.svg"><metadata
     id="metadata3375"><rdf:RDF><cc:Work
         rdf:about=""><dc:format>image/svg+xml</dc:format><dc:type
           rdf:resource="http://purl.org/dc/dcmitype/StillImage" /></cc:Work></rdf:RDF></metadata><defs
     id="defs3373" /><sodipodi:namedview
     pagecolor="#ffffff"
     bordercolor="#666666"
     borderopacity="1"
     objecttolerance="10"
     gridtolerance="10"
     guidetolerance="10"
     inkscape:pageopacity="0"
     inkscape:pageshadow="2"
     inkscape:window-width="1366"
     inkscape:window-height="716"
     id="namedview3371"
     showgrid="false"
     inkscape:zoom="1.176807"
     inkscape:cx="102.8206"
     inkscape:cy="227.31"
     inkscape:window-x="0"
     inkscape:window-y="25"
     inkscape:window-maximized="1"
     inkscape:current-layer="g3337" /><g
     id="g3337"><path
       d="M346.33,195.389h-6.637v-83.006C339.693,50.41,289.275,0,227.31,0c-61.965,0-112.383,50.41-112.383,112.383v6.36   c0,16.926,13.723,30.649,30.649,30.649c16.926,0,30.649-13.724,30.649-30.649v-6.36c0-28.165,22.92-51.084,51.085-51.084   c28.165,0,51.084,22.919,51.084,51.084v83.006H108.29c-23.137,0-41.888,18.752-41.888,41.889v175.455   c0,23.137,18.751,41.888,41.888,41.888h238.04c23.137,0,41.888-18.751,41.888-41.888V237.277   C388.219,214.141,369.467,195.389,346.33,195.389z M250.297,328.41v30.432c0,12.697-10.289,22.986-22.987,22.986   c-12.698,0-22.987-10.289-22.987-22.986v-30.439c-10.019-7.185-16.604-18.865-16.604-32.131c0-21.865,17.72-39.6,39.599-39.6   c21.864,0,39.583,17.734,39.583,39.6C266.901,309.545,260.316,321.218,250.297,328.41z"
       id="path3339"
       style="fill:#3f51b5;fill-opacity:1" /></g><g
     id="g3341" /><g
     id="g3343" /><g
     id="g3345" /><g
     id="g3347" /><g
     id="g3349" /><g
     id="g3351" /><g
     id="g3353" /><g
     id="g3355" /><g
     id="g3357" /><g
     id="g3359" /><g
     id="g3361" /><g
     id="g3363" /><g
     id="g3365" /><g
     id="g3367" /><g
     id="g3369" /></svg>