<?xml version="1.0" encoding="UTF-8" standalone="no"?>
<!-- Generator: Adobe Illustrator 18.0.0, SVG Export Plug-In . SVG Version: 6.00 Build 0)  -->

<svg
   xmlns:dc="http://purl.org/dc/elements/1.1/"
   xmlns:cc="http://creativecommons.org/ns#"
   xmlns:rdf="http://www.w3.org/1999/02/22-rdf-syntax-ns#"
   xmlns:svg="http://www.w3.org/2000/svg"
   xmlns="http://www.w3.org/2000/svg"
   xmlns:sodipodi="http://sodipodi.sourceforge.net/DTD/sodipodi-0.dtd"
   xmlns:inkscape="http://www.inkscape.org/namespaces/inkscape"
   version="1.1"
   id="Capa_1"
   x="0px"
   y="0px"
   viewBox="0 0 454.62 454.62"
   style="enable-background:new 0 0 454.62 454.62;"
   xml:space="preserve"
   inkscape:version="0.91 r"
   sodipodi:docname="padlock108.svg"><metadata
     id="metadata4316"><rdf:RDF><cc:Work
         rdf:about=""><dc:format>image/svg+xml</dc:format><dc:type
           rdf:resource="http://purl.org/dc/dcmitype/StillImage" /></cc:Work></rdf:RDF></metadata><defs
     id="defs4314" /><sodipodi:namedview
     pagecolor="#ffffff"
     bordercolor="#666666"
     borderopacity="1"
     objecttolerance="10"
     gridtolerance="10"
     guidetolerance="10"
     inkscape:pageopacity="0"
     inkscape:pageshadow="2"
     inkscape:window-width="1366"
     inkscape:window-height="716"
     id="namedview4312"
     showgrid="false"
     inkscape:zoom="0.51911487"
     inkscape:cx="-54.901143"
     inkscape:cy="227.31"
     inkscape:window-x="0"
     inkscape:window-y="25"
     inkscape:window-maximized="1"
     inkscape:current-layer="g4278" /><g
     id="g4278"><path
       d="M346.331,195.389h-6.637v-83.006C339.693,50.41,289.281,0,227.31,0S114.927,50.41,114.927,112.383v83.006h-6.637   c-23.137,0-41.888,18.752-41.888,41.889v175.455c0,23.137,18.752,41.888,41.888,41.888h238.04   c23.137,0,41.888-18.751,41.888-41.888V237.277C388.218,214.141,369.468,195.389,346.331,195.389z M250.297,328.41v30.432   c0,12.697-10.289,22.986-22.987,22.986c-12.698,0-22.987-10.289-22.987-22.986v-30.439c-10.019-7.185-16.604-18.865-16.604-32.131   c0-21.865,17.72-39.6,39.599-39.6c21.864,0,39.583,17.734,39.583,39.6C266.901,309.545,260.316,321.218,250.297,328.41z    M278.395,195.389H176.226v-83.006c0-28.165,22.919-51.084,51.084-51.084s51.085,22.919,51.085,51.084V195.389z"
       id="path4280"
       style="fill:#3f51b5;fill-opacity:1" /></g><g
     id="g4282" /><g
     id="g4284" /><g
     id="g4286" /><g
     id="g4288" /><g
     id="g4290" /><g
     id="g4292" /><g
     id="g4294" /><g
     id="g4296" /><g
     id="g4298" /><g
     id="g4300" /><g
     id="g4302" /><g
     id="g4304" /><g
     id="g4306" /><g
     id="g4308" /><g
     id="g4310" /></svg>